<svg xmlns="http://www.w3.org/2000/svg" version="1.1" xmlns:xlink="http://www.w3.org/1999/xlink" width="512" height="512" x="0" y="0" viewBox="0 0 512.001 512.001" style="enable-background:new 0 0 512 512" xml:space="preserve" class=""><g><circle cx="308.894" cy="440.11" r="9.367" fill="#000000" opacity="1" data-original="#000000" class=""></circle><path d="M292.782 275.872a9.355 9.355 0 0 0-9.367 9.367 9.362 9.362 0 0 0 9.367 9.367c5.171 0 9.367-4.197 9.367-9.367a9.362 9.362 0 0 0-9.367-9.367zM246.745 242.262a9.355 9.355 0 0 0-9.367 9.367 9.362 9.362 0 0 0 9.367 9.367c5.171 0 9.367-4.197 9.367-9.367a9.362 9.362 0 0 0-9.367-9.367z" fill="#000000" opacity="1" data-original="#000000" class=""></path><circle cx="194.888" cy="397.82" r="9.367" fill="#000000" opacity="1" data-original="#000000" class=""></circle><path d="M485.651 49.219C468.66 32.227 446.069 22.87 422.038 22.87s-46.623 9.357-63.613 26.349l-78.685 78.685-.001.001L256 151.654l-41.036-41.037c-3.658-3.658-9.59-3.658-13.247 0a9.367 9.367 0 0 0 0 13.247l41.037 41.038-100.733 100.732L39.597 163.199c-13.454-13.453-20.863-31.34-20.863-50.367 0-19.027 7.409-36.913 20.863-50.367 13.453-13.453 31.337-20.861 50.36-20.861 19.022 0 36.907 7.409 50.361 20.861l29.553 29.553c3.658 3.658 9.59 3.658 13.247 0 3.658-3.658 3.658-9.59 0-13.247l-29.553-29.553c-16.991-16.992-39.581-26.349-63.607-26.349s-46.618 9.357-63.609 26.35C9.358 66.209 0 88.802 0 112.832s9.358 46.622 26.349 63.613l109.047 109.059a9.367 9.367 0 0 0 13.248 0L256 178.149l107.345 107.356a9.367 9.367 0 0 0 13.248 0l109.06-109.059c16.991-16.991 26.349-39.583 26.349-63.613-.002-24.031-9.359-46.624-26.351-63.614zM369.969 265.634 269.247 164.9l17.118-17.126 100.731 100.733-17.127 17.127zm102.435-102.435-72.061 72.061L299.61 134.526l72.061-72.061c13.453-13.453 31.34-20.861 50.367-20.861 19.027 0 36.913 7.409 50.367 20.861 13.453 13.453 20.863 31.34 20.863 50.367-.002 19.027-7.411 36.914-20.864 50.367zM221.216 297.266c-19.152 0-34.734 15.587-34.734 34.746 0 19.152 15.582 34.734 34.734 34.734 19.159 0 34.746-15.581 34.746-34.734.001-19.159-15.587-34.746-34.746-34.746zm0 50.746c-8.821 0-15.999-7.178-15.999-15.999 0-8.829 7.178-16.012 15.999-16.012 8.829 0 16.012 7.183 16.012 16.012 0 8.821-7.183 15.999-16.012 15.999zM319.223 332.087c-19.152 0-34.734 15.587-34.734 34.746 0 19.152 15.582 34.734 34.734 34.734 19.159 0 34.746-15.582 34.746-34.734 0-19.159-15.587-34.746-34.746-34.746zm0 50.746c-8.821 0-15.999-7.178-15.999-15.999 0-8.829 7.178-16.012 15.999-16.012 8.829 0 16.012 7.183 16.012 16.012-.001 8.822-7.184 15.999-16.012 15.999zM225.7 419.652c-19.159 0-34.746 15.582-34.746 34.734 0 19.159 15.587 34.746 34.746 34.746 19.152 0 34.734-15.587 34.734-34.746 0-19.152-15.581-34.734-34.734-34.734zm0 50.746c-8.829 0-16.012-7.183-16.012-16.012 0-8.821 7.183-15.999 16.012-15.999 8.821 0 15.999 7.178 15.999 15.999 0 8.829-7.177 16.012-15.999 16.012z" fill="#000000" opacity="1" data-original="#000000" class=""></path></g></svg>
