<svg xmlns="http://www.w3.org/2000/svg" version="1.1" xmlns:xlink="http://www.w3.org/1999/xlink" width="512" height="512" x="0" y="0" viewBox="0 0 512.001 512.001" style="enable-background:new 0 0 512 512" xml:space="preserve" class=""><g><path d="M225.372 429.343c14.013 0 25.366 11.353 25.366 25.366s-11.353 25.379-25.366 25.379-25.379-11.366-25.379-25.379 11.365-25.366 25.379-25.366zM220.888 306.957c14.013 0 25.379 11.366 25.379 25.379 0 14.001-11.366 25.366-25.379 25.366-14.001 0-25.366-11.366-25.366-25.366-.001-14.013 11.365-25.379 25.366-25.379zM318.894 341.778c14.013 0 25.379 11.366 25.379 25.379s-11.366 25.366-25.379 25.366c-14.001 0-25.366-11.353-25.366-25.366s11.365-25.379 25.366-25.379z" style="" fill="#ed5343" data-original="#ed5343"></path><path d="m400.014 248.83-30.375 30.375-113.967-113.98 30.362-30.375z" style="" fill="#eabb5e" data-original="#eabb5e"></path><path d="M478.699 56.165c31.474 31.474 31.474 82.507 0 113.98l-78.685 78.685-113.98-113.98 78.685-78.685c31.473-31.474 82.506-31.474 113.98 0z" style="" fill="#eabb5e" data-original="#eabb5e"></path><path d="m255.672 165.225-113.98 113.98L32.644 170.146c-31.474-31.474-31.474-82.507 0-113.98A80.607 80.607 0 0 1 52.04 41.84c30.425-16.049 68.968-11.278 94.571 14.326l109.061 109.059z" style="" fill="#96ccc6" data-original="#96ccc6"></path><path d="m255.672 165.225-80.258 80.258L66.366 136.424C40.762 110.82 35.991 72.277 52.041 41.84c30.425-16.049 68.968-11.278 94.572 14.326l109.059 109.059z" style="" fill="#a4ddd8" data-original="#a4ddd8"></path><path d="m255.672 165.225 80.258 80.258 109.047-109.059c25.604-25.604 30.375-64.147 14.326-94.584-30.425-16.049-68.968-11.278-94.572 14.326L255.672 165.225z" style="" fill="#f9cf70" data-original="#f9cf70"></path><circle cx="308.894" cy="440.11" r="9.367" fill="#000000" opacity="1" data-original="#000000"></circle><path d="M292.782 294.606c5.171 0 9.367-4.197 9.367-9.367a9.363 9.363 0 0 0-9.367-9.367 9.355 9.355 0 0 0-9.367 9.367 9.362 9.362 0 0 0 9.367 9.367zM256.112 251.629a9.363 9.363 0 0 0-9.367-9.367 9.355 9.355 0 0 0-9.367 9.367 9.362 9.362 0 0 0 9.367 9.367c5.171 0 9.367-4.196 9.367-9.367z" fill="#000000" opacity="1" data-original="#000000"></path><circle cx="194.888" cy="397.82" r="9.367" fill="#000000" opacity="1" data-original="#000000"></circle><path d="M485.651 49.219C468.66 32.227 446.069 22.87 422.038 22.87s-46.623 9.357-63.613 26.349l-78.685 78.685-.001.001L256 151.654l-41.036-41.037c-3.658-3.658-9.59-3.658-13.247 0a9.367 9.367 0 0 0 0 13.247l41.037 41.038-100.733 100.732L39.597 163.199c-13.454-13.453-20.863-31.34-20.863-50.367s7.409-36.913 20.863-50.367c13.453-13.453 31.337-20.861 50.36-20.861 19.022 0 36.907 7.409 50.361 20.861l29.553 29.553c3.658 3.658 9.59 3.658 13.247 0 3.658-3.658 3.658-9.59 0-13.247l-29.553-29.553c-16.991-16.992-39.581-26.349-63.607-26.349S43.34 32.226 26.349 49.218C9.358 66.209 0 88.802 0 112.832s9.358 46.623 26.349 63.613l109.047 109.059a9.367 9.367 0 0 0 13.247 0L256 178.149l107.345 107.356a9.367 9.367 0 0 0 13.247 0l109.059-109.059C502.642 159.455 512 136.863 512 112.833c0-24.031-9.357-46.624-26.349-63.614zM369.969 265.634 269.247 164.9l17.118-17.126 100.731 100.733-17.127 17.127zm102.435-102.435-72.061 72.061L299.61 134.526l72.061-72.061c13.453-13.453 31.34-20.861 50.367-20.861 19.027 0 36.913 7.409 50.367 20.861 13.453 13.453 20.863 31.34 20.863 50.367-.002 19.027-7.411 36.914-20.864 50.367zM186.483 332.012c0 19.152 15.582 34.734 34.734 34.734 19.159 0 34.746-15.581 34.746-34.734 0-19.159-15.587-34.746-34.746-34.746-19.152 0-34.734 15.587-34.734 34.746zm50.745 0c0 8.821-7.183 15.999-16.012 15.999-8.821 0-15.999-7.178-15.999-15.999 0-8.829 7.178-16.012 15.999-16.012 8.829.001 16.012 7.184 16.012 16.012zM319.223 332.087c-19.152 0-34.734 15.587-34.734 34.746 0 19.152 15.582 34.734 34.734 34.734 19.159 0 34.746-15.582 34.746-34.734 0-19.159-15.587-34.746-34.746-34.746zm0 50.746c-8.821 0-15.999-7.178-15.999-15.999 0-8.829 7.178-16.012 15.999-16.012 8.829 0 16.012 7.183 16.012 16.012-.001 8.822-7.184 15.999-16.012 15.999zM225.7 419.652c-19.159 0-34.746 15.582-34.746 34.734 0 19.159 15.587 34.746 34.746 34.746 19.152 0 34.734-15.587 34.734-34.746 0-19.152-15.581-34.734-34.734-34.734zm0 50.746c-8.829 0-16.012-7.183-16.012-16.012 0-8.821 7.183-15.999 16.012-15.999 8.821 0 15.999 7.178 15.999 15.999 0 8.829-7.177 16.012-15.999 16.012z" fill="#000000" opacity="1" data-original="#000000"></path></g></svg>